<svg width="1395" height="340" viewBox="0 0 1395 340" fill="none" xmlns="http://www.w3.org/2000/svg">
<path d="M34.7318 104.619C34.7318 110.331 37.277 124.755 40.1875 110.202C43.9957 91.1609 21.8644 83.9606 10.879 98.0218C-2.56773 115.234 -1.63122 144.89 14.1778 160.699C28.9521 175.473 43.1862 147.089 48.4345 136.592" stroke="white" stroke-width="3" stroke-linecap="round"/>
<path d="M57.5697 138.876C52.877 138.289 68.7348 110.082 68.7348 104.746C68.7348 96.7181 62.4588 102.077 60.9954 106.142C56.3276 119.108 50.9721 132.671 50.9721 146.615C50.9721 183.182 82.9939 158.717 93.6026 141.667C97.1264 136.004 96.3939 133.175 96.3939 141.667C96.3939 148.889 96.7509 155.112 94.1101 161.714" stroke="white" stroke-width="3" stroke-linecap="round"/>
<path d="M87.2588 111.471C82.2708 105.859 87.7667 111.598 89.5426 116.038" stroke="white" stroke-width="3" stroke-linecap="round"/>
<path d="M112.38 148.011C119.189 148.011 124.921 146.738 130.397 142.175C133.328 139.732 138.503 129.328 130.651 129.741C115.145 130.557 107.234 174.7 127.859 163.49C132.326 161.062 137.253 157.71 141.054 154.355C143.658 152.058 146.997 142.634 149.936 141.794C150.516 141.629 151.78 157.52 153.488 159.43C157.933 164.397 161.443 157.607 165.922 156.385C168.55 155.669 176.582 166.538 178.61 168.565" stroke="white" stroke-width="3" stroke-linecap="round"/>
<path d="M201.448 102.335C201.448 120.748 208.299 175.559 208.299 157.146" stroke="white" stroke-width="3" stroke-linecap="round"/>
<path d="M185.461 141.16C195.221 140.075 204.396 134.308 215.15 134.308" stroke="white" stroke-width="3" stroke-linecap="round"/>
<path d="M137.502 227.943C136.132 216.982 74.8955 219.031 119.485 243.803C123.268 245.904 171.196 266.761 150.951 274.634C139.338 279.15 112.38 266.639 112.38 253.065" stroke="white" stroke-width="3" stroke-linecap="round"/>
<path d="M128.367 214.241C128.367 236.133 130.568 264.237 137.502 285.038" stroke="white" stroke-width="3" stroke-linecap="round"/>
<path d="M649.744 4.28369C650.781 14.6529 684.369 51.194 691.74 37.2716C695.395 30.3671 693.136 19.0194 693.136 11.5157C693.136 6.1179 690.852 5.90888 690.852 11.135" stroke="white" stroke-width="3" stroke-linecap="round"/>
<path d="M706.838 8.85132C707.687 16.4926 713.07 24.9927 716.481 31.6891C724.562 47.5519 721.834 37.8506 718.257 27.1215" stroke="white" stroke-width="3" stroke-linecap="round"/>
<path d="M713.69 2C724.145 3.04552 739.655 10.7731 742.11 21.4121C744.793 33.0389 707.955 22.554 702.271 22.554" stroke="white" stroke-width="3" stroke-linecap="round"/>
<path d="M629.19 33.973C612.163 32.6632 596.179 29.2444 578.947 29.4054C549.266 29.6828 518.925 32.9083 489.879 39.048C462.109 44.9182 408.987 48.3637 389.901 73.8122C367.87 103.186 375.887 144.243 372.899 177.851C370.792 201.563 362.78 237.978 380.385 257.783C400.857 280.814 430.92 304.558 460.571 313.736C532.77 336.083 614.878 330.864 689.456 330.864C777.866 330.864 865.866 337.715 954.375 337.715C994.397 337.715 1034.58 334.995 1074.27 329.849C1084.5 328.523 1120.96 330.074 1117.92 314.878" stroke="white" stroke-width="3" stroke-linecap="round"/>
<path d="M757.082 15.7026C775.601 15.7026 793.581 17.0458 812.019 19.0014C845.399 22.5417 878.871 29.1213 912.252 31.6891C967.215 35.917 1021.65 73.3948 1056.26 114.413C1087.7 151.683 1094.46 202.505 1105.36 248.521C1111.65 275.082 1113.64 302.323 1120.2 328.58" stroke="white" stroke-width="3" stroke-linecap="round"/>
<path d="M263.786 175.567C272.186 168.847 291.653 174.947 300.96 175.567C333.695 177.75 366.642 184.702 399.417 184.702C413.139 184.702 425.123 181.765 437.353 180.135C440.77 179.679 430.704 175.172 429.359 174.425C428.794 174.111 451.036 180.853 457.653 183.56C472.806 189.76 459.726 197.799 451.055 200.689" stroke="white" stroke-width="3" stroke-linecap="round"/>
<path d="M489.88 161.865C498.042 173.088 497.913 196.282 501.298 209.824" stroke="white" stroke-width="3" stroke-linecap="round"/>
<path d="M473.893 161.865C474.525 156.811 502.7 159.581 508.15 159.581" stroke="white" stroke-width="3" stroke-linecap="round"/>
<path d="M517.285 191.553C538.278 189.221 525.789 171.884 520.71 176.963C507.707 189.967 521.932 220.65 536.57 201.83C540.018 197.397 538.551 207.294 545.198 207.54C552.855 207.823 565.024 201.264 560.169 191.553C551.762 174.74 529.046 214.163 549.258 200.689" stroke="white" stroke-width="3" stroke-linecap="round"/>
<path d="M553.825 196.121C554.175 193.673 562.518 204.347 565.244 205.256" stroke="white" stroke-width="3" stroke-linecap="round"/>
<path d="M572.095 191.554C573.873 193.776 576.412 208.676 578.947 201.704C583.12 190.228 580.763 198.174 584.656 202.846C588.967 208.018 591.908 197.71 594.933 194.853C598.678 191.315 603.962 200.583 606.352 202.973" stroke="white" stroke-width="3" stroke-linecap="round"/>
<path d="M560.677 111.621C560.677 124.259 559.29 136.046 555.094 148.035C552.935 154.205 554.447 154.258 552.683 147.908C551.013 141.894 549.375 136.973 547.101 131.287C542.984 120.996 554.389 152.406 560.169 161.864C563.704 167.649 569.812 149.864 569.812 145.878" stroke="white" stroke-width="3" stroke-linecap="round"/>
<path d="M549.258 253.216C548.74 249.078 499.343 248.249 492.163 248.648C489.12 248.817 498.076 279.413 502.44 282.905C505.568 285.407 507.827 289.041 510.941 291.532C514.671 294.516 534.428 293.822 539.108 294.197C554.471 295.426 571.195 294.368 586.306 297.115C590.878 297.946 608.616 302.287 601.785 292.04" stroke="white" stroke-width="3" stroke-linecap="round"/>
<path d="M551.542 248.648C566.303 248.648 586.777 248.583 593.791 261.209C596.882 266.772 594.046 274.519 595.441 280.621C596.027 283.184 598.969 292.04 597.217 292.04" stroke="white" stroke-width="3" stroke-linecap="round"/>
<path d="M512.717 276.053C517.299 276.563 526.261 287.791 528.704 282.905" stroke="white" stroke-width="3" stroke-linecap="round"/>
<path d="M524.136 273.77C523.727 277.451 521.563 282.196 519.569 285.188" stroke="white" stroke-width="3" stroke-linecap="round"/>
<path d="M517.285 266.918C517.285 272.769 519.569 277.589 519.569 282.905" stroke="white" stroke-width="3" stroke-linecap="round"/>
<path d="M510.433 280.621H526.42" stroke="white" stroke-width="3" stroke-linecap="round"/>
<path d="M526.42 269.202C527.572 278.416 541.581 276.686 544.69 282.905" stroke="white" stroke-width="3" stroke-linecap="round"/>
<path d="M542.406 271.486C542.406 276.215 542.272 280.688 537.839 282.905" stroke="white" stroke-width="3" stroke-linecap="round"/>
<path d="M535.555 271.486C536.047 275.916 538.709 280.949 540.123 285.189" stroke="white" stroke-width="3" stroke-linecap="round"/>
<path d="M530.988 278.337H540.123" stroke="white" stroke-width="3" stroke-linecap="round"/>
<path d="M549.258 269.202C549.258 273.755 557.26 289.738 560.677 282.905" stroke="white" stroke-width="3" stroke-linecap="round"/>
<path d="M560.677 273.77C557.934 276.855 555.576 281.687 553.825 285.188" stroke="white" stroke-width="3" stroke-linecap="round"/>
<path d="M553.825 271.486C553.825 275.694 557.503 287.027 553.825 285.189" stroke="white" stroke-width="3" stroke-linecap="round"/>
<path d="M546.974 278.337C550.33 281.32 554.162 280.621 558.393 280.621" stroke="white" stroke-width="3" stroke-linecap="round"/>
<path d="M649.744 198.405C669.248 198.405 690.251 197.439 709.757 195.994C723.496 194.977 720.365 188.101 709.122 185.21C700.701 183.044 705.803 186.236 710.391 188.255C720.563 192.731 729.708 195.987 740.588 198.405C750.671 200.646 729.658 206.785 727.392 207.54" stroke="white" stroke-width="3" stroke-linecap="round"/>
<path d="M677.149 171C682.744 170.3 677.149 139.528 677.149 134.459C677.149 119.344 657.086 155.216 656.595 139.027C656.299 129.263 663.401 121.677 672.582 129.892C679.194 135.808 680.749 144.91 686.284 150.446" stroke="white" stroke-width="3" stroke-linecap="round"/>
<path d="M492.163 95.6348C495.438 105.458 501.298 125.324 501.298 125.324" stroke="white" stroke-width="3" stroke-linecap="round"/>
<path d="M494.447 91.0676C504.681 89.9305 507.544 88.1783 516.143 96.777C524.766 105.4 505.08 102.748 499.015 104.77" stroke="white" stroke-width="3" stroke-linecap="round"/>
<path d="M480.744 118.473C486.726 113.155 500.66 116.189 508.15 116.189" stroke="white" stroke-width="3" stroke-linecap="round"/>
<path d="M697.703 123.04C697.703 135.207 709.462 149.486 714.832 132.302C715.891 128.914 715.096 120.577 716.1 127.608C716.896 133.18 718.257 137.808 718.257 143.594" stroke="white" stroke-width="3" stroke-linecap="round"/>
<path d="M734.244 125.324C727.418 125.324 715.633 134.073 727.646 136.743C729.905 137.245 749.215 138.845 749.215 140.803C749.215 141.312 738.11 143.594 736.528 143.594" stroke="white" stroke-width="3" stroke-linecap="round"/>
<path d="M747.946 129.891C748.551 135.933 753.783 153.219 753.783 147.147C753.783 144.59 749.719 128.896 753.783 127.735C759.147 126.202 763.087 134.306 765.075 137.885C768.722 144.449 761.072 145.325 759.365 150.445" stroke="white" stroke-width="3" stroke-linecap="round"/>
<path d="M773.068 129.892C775.858 135.82 776.4 142.883 779.919 148.162" stroke="white" stroke-width="3" stroke-linecap="round"/>
<path d="M761.649 129.892C770.914 129.179 779.712 127.608 789.054 127.608" stroke="white" stroke-width="3" stroke-linecap="round"/>
<path d="M798.19 175.567C798.19 184.605 806.683 237.799 809.608 236.722C828.313 229.831 853.948 237.229 873.427 237.229C875.253 237.229 910.941 235.227 896.392 230.378" stroke="white" stroke-width="3" stroke-linecap="round"/>
<path d="M793.622 164.148C825.146 164.148 856.585 166.432 888.145 166.432C901.595 166.432 905.611 174.252 907.811 188.001C909.673 199.642 916.946 211.778 916.946 223.527C916.946 232.24 906.893 232.662 898.676 232.662" stroke="white" stroke-width="3" stroke-linecap="round"/>
<path d="M825.595 198.405C830.989 203.2 844.941 220.914 852.493 220.228C856.619 219.853 855.039 195.347 857.568 191.554" stroke="white" stroke-width="3" stroke-linecap="round"/>
<path d="M866.703 196.121C870.873 200.813 870.646 210.535 871.397 216.548C872.295 223.728 872.71 215.831 868.987 212.108" stroke="white" stroke-width="3" stroke-linecap="round"/>
<path d="M866.703 189.27C872.028 189.27 885.82 195.936 887.13 201.831C889.147 210.909 878.94 208.187 875.838 214.392" stroke="white" stroke-width="3" stroke-linecap="round"/>
<path d="M868.987 214.391C868.987 220.299 873.973 224.782 875.838 230.378" stroke="white" stroke-width="3" stroke-linecap="round"/>
<path d="M937.5 200.689C992.884 201.408 1051.15 209.483 1106.25 201.831C1110.61 201.225 1142.97 198.478 1133.65 194.853C1125.43 191.657 1117.16 189.27 1108.28 189.27C1098.43 189.27 1127.81 191.885 1137.46 193.838C1137.82 193.911 1155.11 199.446 1152.94 200.689C1147.64 203.717 1141.38 204.079 1136.19 207.54" stroke="white" stroke-width="3" stroke-linecap="round"/>
<path d="M1197.85 148.162C1197.85 163.076 1204.74 181.807 1208.76 196.121C1210.17 201.15 1212.01 231.51 1217.64 232.535C1230.06 234.793 1244.66 231.594 1256.98 230.378C1283.21 227.787 1309.53 227.536 1335.77 224.795C1343.68 223.968 1388 225.557 1375.99 207.54" stroke="white" stroke-width="3" stroke-linecap="round"/>
<path d="M1232.11 132.176C1233.95 124.805 1286.69 130.907 1290.85 131.161C1311.33 132.407 1334.25 137.162 1354.67 133.191C1358.55 132.435 1362.96 128.147 1365.71 132.429C1375.25 147.27 1379.53 170.381 1385.12 186.986C1386.33 190.572 1399.38 226.372 1389.69 216.675" stroke="white" stroke-width="3" stroke-linecap="round"/>
<path d="M1293.77 200.689C1284.46 199.655 1284.76 180.527 1286.41 174.299C1289.3 163.4 1300.87 184.124 1303.41 186.479C1312.44 194.841 1321.84 163.451 1322.95 165.163C1330.57 176.932 1340.17 190.715 1346.3 202.973" stroke="white" stroke-width="3" stroke-linecap="round"/>
</svg>
